<?xml version="1.0" standalone="no"?><!DOCTYPE svg PUBLIC "-//W3C//DTD SVG 1.1//EN" "http://www.w3.org/Graphics/SVG/1.1/DTD/svg11.dtd"><svg class="icon" height="512" viewBox="0 0 1024 1024" version="1.1" xmlns="http://www.w3.org/2000/svg"><path d="M331.776 25.6 148.48 25.6C80.896 25.6 26.624 80.896 26.624 147.456l0 196.608c0 67.584 54.272 121.856 121.856 121.856l183.296 0c67.584 0 121.856-54.272 121.856-121.856L453.632 147.456C453.632 80.896 399.36 25.6 331.776 25.6zM392.192 344.064c0 33.792-27.648 60.416-60.416 60.416L148.48 404.48c-33.792 0-60.416-27.648-60.416-60.416L88.064 147.456c0-33.792 27.648-60.416 60.416-60.416l183.296 0c33.792 0 60.416 27.648 60.416 60.416L392.192 344.064zM603.136 169.984l368.64 0c16.384 0 30.72-13.312 30.72-30.72 0-16.384-13.312-30.72-30.72-30.72l-368.64 0c-16.384 0-30.72 13.312-30.72 30.72C573.44 156.672 586.752 169.984 603.136 169.984zM972.8 321.536l-368.64 0c-16.384 0-30.72 13.312-30.72 30.72 0 16.384 13.312 30.72 30.72 30.72l368.64 0c16.384 0 30.72-13.312 30.72-30.72C1003.52 334.848 989.184 321.536 972.8 321.536zM331.776 563.2 148.48 563.2C80.896 563.2 26.624 617.472 26.624 685.056L26.624 880.64c0 67.584 54.272 121.856 121.856 121.856l183.296 0c67.584 0 121.856-54.272 121.856-121.856L453.632 685.056C453.632 617.472 399.36 563.2 331.776 563.2zM392.192 880.64c0 33.792-27.648 60.416-60.416 60.416L148.48 941.056c-33.792 0-60.416-27.648-60.416-60.416L88.064 685.056c0-33.792 27.648-60.416 60.416-60.416l183.296 0c33.792 0 60.416 27.648 60.416 60.416L392.192 880.64zM972.8 646.144l-368.64 0c-16.384 0-30.72 13.312-30.72 30.72 0 16.384 13.312 30.72 30.72 30.72l368.64 0c16.384 0 30.72-13.312 30.72-30.72C1003.52 659.456 989.184 646.144 972.8 646.144zM972.8 858.112l-368.64 0c-16.384 0-30.72 13.312-30.72 30.72 0 16.384 13.312 30.72 30.72 30.72l368.64 0c16.384 0 30.72-13.312 30.72-30.72C1003.52 871.424 989.184 858.112 972.8 858.112z" /></svg>